<mxfile host="app.diagrams.net" modified="2023-08-14T03:10:24.410Z" agent="Mozilla/5.0 (Macintosh; Intel Mac OS X 10_15_7) AppleWebKit/537.36 (KHTML, like Gecko) Chrome/114.0.0.0 Safari/537.36" version="21.6.6" etag="62t1You4RpcRig-6bV71" type="github">
  <diagram name="第 1 页" id="PO7RXg1VSUOrblZ271jS">
    <mxGraphModel>
      <root>
        <mxCell id="0" />
        <mxCell id="1" parent="0" />
      </root>
    </mxGraphModel>
  </diagram>
</mxfile>
